# xmcd
#
# Track frame offsets: 
#        150
#        16248
#        35531
#        56619
#        71583
#        93300
#        108458
#        124348
#        147045
#        156313
#        174970
#        194148
#        210410
#        224115
#        239732
#
# Disc length: 3474 seconds
#
# Revision: 3
# Processed by: cddbd v1.5.2PL0 Copyright (c) Steve Scherf et al.
# Submitted via: ExactAudioCopy v0.90b4
#
DISCID=e40d900f
DTITLE=Eric Bibb - Friends
DYEAR=2004
DGENRE=Blues
TTITLE0=99 1/2 Won't Do (feat. Guy Davis)
TTITLE1=Six O'clock Blues (feat. Charlie Musselwhite)
TTITLE2=Goin' Down Slow (feat. Taj Mahal)
TTITLE3=Lovin' in My Baby's Eyes (feat. Mamadou Diabate)
TTITLE4=For You (feat. Ruthie Foster)
TTITLE5=The Cape (feat. Martin Simpson)
TTITLE6='Tain't Such a Much (feat. Odetta)
TTITLE7=Needed Time (feat. Harry Manx)
TTITLE8=If I Stayed (feat. Kristina Olsen)
TTITLE9=Connected (feat. Michael Jerome Browne)
TTITLE10=Ribbons and Bows (feat. Byron Myhre)
TTITLE11=Just Look Up (feat. Micheal Jerome Browne)
TTITLE12=Cowgirl Queen (feat. Led Ka'apana)
TTITLE13=Kulanjan/Sebastian's Tune (feat. Taj Mahal and Djelimady Tounka
TTITLE13=)
TTITLE14=Dance Me to the End of Love (feat. Jerry Yester)
EXTD=
EXTT0=
EXTT1=
EXTT2=
EXTT3=
EXTT4=
EXTT5=
EXTT6=
EXTT7=
EXTT8=
EXTT9=
EXTT10=
EXTT11=
EXTT12=
EXTT13=
EXTT14=
PLAYORDER=
